<svg xmlns="http://www.w3.org/2000/svg" xmlns:xlink="http://www.w3.org/1999/xlink" width="500" zoomAndPan="magnify" viewBox="0 0 375 374.999991" height="500" preserveAspectRatio="xMidYMid meet" version="1.0"><defs><clipPath id="13c4763f5b"><path d="M 27.832031 58.167969 L 309 58.167969 L 309 316.917969 L 27.832031 316.917969 Z M 27.832031 58.167969 " clip-rule="nonzero"/></clipPath><clipPath id="a87ae70da6"><path d="M 0.832031 133 L 253 133 L 253 246 L 0.832031 246 Z M 0.832031 133 " clip-rule="nonzero"/></clipPath><clipPath id="86aca55fa6"><path d="M 143 0.167969 L 281 0.167969 L 281 258.320312 L 143 258.320312 Z M 143 0.167969 " clip-rule="nonzero"/></clipPath><clipPath id="0e86b9f42a"><rect x="0" width="282" y="0" height="259"/></clipPath></defs><g clip-path="url(#13c4763f5b)"><g transform="matrix(1, 0, 0, 1, 27, 58)"><g clip-path="url(#0e86b9f42a)"><g clip-path="url(#a87ae70da6)"><path fill="#ffb300" d="M 0.828125 175.707031 C 137.960938 74.664062 211.988281 185.199219 211.988281 185.199219 C 211.988281 185.199219 138.171875 149.726562 79.496094 175.480469 C 79.496094 175.480469 142.828125 163.382812 204.144531 193.332031 C 204.144531 193.332031 240.210938 211.46875 252.152344 245.863281 C 252.152344 245.863281 234.121094 215 195.199219 200.964844 C 164.722656 224.757812 94.652344 258.804688 0.828125 175.707031 " fill-opacity="1" fill-rule="nonzero"/></g><g clip-path="url(#86aca55fa6)"><path fill="#ffde59" d="M 144.5625 0.148438 C 320.15625 48.855469 276.003906 184.144531 276.003906 184.144531 C 276.003906 184.144531 257.121094 98.589844 196.699219 66.210938 C 196.699219 66.210938 248.699219 111.53125 263.976562 182.914062 C 263.976562 182.914062 272.527344 225.242188 251.464844 258.003906 C 251.464844 258.003906 265.535156 222.453125 251.648438 180.421875 C 211.496094 170.484375 136.578125 133.984375 144.5625 0.148438 " fill-opacity="1" fill-rule="nonzero"/></g></g></g></g></svg>